<svg width="680" height="548" viewBox="0 0 680 548" xmlns="http://www.w3.org/2000/svg" role="img" aria-labelledby="ttl desc">
<title id="ttl">SEED/ARCSグループ 事業組織図（正式版 2026-06-28）</title>
<desc id="desc">山本史朗代表の下、SEED（EC事業＝Amazon・楽天・auPAYマーケット・ペライチ、ペット事業＝shop fuu・卸売・イベント、サテライトオフィス事業構想）と、ARCS（就労継続支援A型かみふうせん・B型かみひこうき・相談支援事業所構想・地域共生雇用センター構想）の2本柱からなる事業組織図。</desc>
<style>
  .bg{fill:#ffffff;}
  .th{font-family:Georgia,'Yu Mincho',serif;font-weight:700;fill:#1a1a1a;}
  .t{font-family:'Yu Gothic UI','Meiryo',system-ui,sans-serif;font-weight:600;fill:#1a1a1a;}
  .ts{font-family:'Yu Gothic UI','Meiryo',system-ui,sans-serif;font-weight:400;fill:#6b6b6b;}
  .box{fill:#ffffff;stroke:#c9c9c9;stroke-width:1.5;}
  .pillar{fill:#f4f2ee;stroke:#b8b3a8;stroke-width:1.5;}
  .lead{fill:#efece6;stroke:#a8a195;stroke-width:2;}
  .plan{stroke-dasharray:5 4;}
  .ln{stroke:#c2c2c2;stroke-width:1.5;fill:none;}
  .cap{font-family:'Yu Gothic UI','Meiryo',system-ui,sans-serif;fill:#9a9a9a;}
</style>
<rect class="bg" x="0" y="0" width="680" height="548"/>

<!-- title -->
<text class="cap" x="20" y="20" font-size="11">SEED / ARCS グループ 事業組織図（正式版 2026-06-28）</text>

<!-- connectors 代表 -> 本部 -->
<path class="ln" d="M130,327 L140,327 M140,216 L140,437 M140,216 L150,216 M140,437 L150,437"/>
<!-- SEED -> 事業 -->
<path class="ln" d="M260,216 L270,216 M270,107 L270,324 M270,107 L280,107 M270,248 L280,248 M270,324 L280,324"/>
<!-- EC -> チャネル -->
<path class="ln" d="M430,107 L440,107 M440,50 L440,164 M440,50 L450,50 M440,88 L450,88 M440,126 L450,126 M440,164 L450,164"/>
<!-- ペット -> チャネル -->
<path class="ln" d="M430,248 L440,248 M440,210 L440,286 M440,210 L450,210 M440,248 L450,248 M440,286 L450,286"/>
<!-- ARCS -> 事業所 -->
<path class="ln" d="M260,437 L270,437 M270,380 L270,494 M270,380 L280,380 M270,418 L280,418 M270,456 L280,456 M270,494 L280,494"/>

<!-- 代表 -->
<rect class="lead" x="20" y="305" width="110" height="44" rx="9"/>
<text class="th" x="75" y="324" font-size="14" text-anchor="middle">山本 史朗</text>
<text class="ts" x="75" y="339" font-size="9.5" text-anchor="middle">SEED / ARCS 代表</text>

<!-- 本部 -->
<rect class="pillar" x="150" y="196" width="110" height="40" rx="8"/>
<text class="th" x="205" y="214" font-size="15" text-anchor="middle">SEED</text>
<text class="ts" x="205" y="228" font-size="9.5" text-anchor="middle">仕事をつくる</text>

<rect class="pillar" x="150" y="417" width="110" height="40" rx="8"/>
<text class="th" x="205" y="435" font-size="15" text-anchor="middle">ARCS</text>
<text class="ts" x="205" y="449" font-size="9.5" text-anchor="middle">人を育てる</text>

<!-- SEED 事業 -->
<rect class="box" x="280" y="90" width="150" height="34" rx="7"/>
<text class="t" x="355" y="111" font-size="13" text-anchor="middle">EC事業</text>

<rect class="box" x="280" y="231" width="150" height="34" rx="7"/>
<text class="t" x="355" y="252" font-size="13" text-anchor="middle">ペット事業</text>

<rect class="box plan" x="280" y="309" width="150" height="30" rx="7"/>
<text class="t" x="355" y="328" font-size="12" text-anchor="middle">サテライトオフィス</text>

<!-- ARCS 事業所 -->
<rect class="box" x="280" y="365" width="150" height="30" rx="7"/>
<text class="t" x="355" y="384" font-size="12" text-anchor="middle">A型 かみふうせん</text>

<rect class="box" x="280" y="403" width="150" height="30" rx="7"/>
<text class="t" x="355" y="422" font-size="12" text-anchor="middle">B型 かみひこうき</text>

<rect class="box plan" x="280" y="441" width="150" height="30" rx="7"/>
<text class="t" x="355" y="460" font-size="12" text-anchor="middle">相談支援事業所</text>

<rect class="box plan" x="280" y="479" width="150" height="30" rx="7"/>
<text class="t" x="355" y="498" font-size="12" text-anchor="middle">地域共生雇用センター</text>

<!-- EC チャネル -->
<rect class="box" x="450" y="36" width="160" height="28" rx="6"/>
<text class="t" x="530" y="54" font-size="12" text-anchor="middle">Amazon</text>
<rect class="box" x="450" y="74" width="160" height="28" rx="6"/>
<text class="t" x="530" y="92" font-size="12" text-anchor="middle">楽天</text>
<rect class="box" x="450" y="112" width="160" height="28" rx="6"/>
<text class="t" x="530" y="130" font-size="12" text-anchor="middle">auPAYマーケット</text>
<rect class="box" x="450" y="150" width="160" height="28" rx="6"/>
<text class="t" x="530" y="168" font-size="12" text-anchor="middle">ペライチ</text>

<!-- ペット チャネル -->
<rect class="box" x="450" y="196" width="160" height="28" rx="6"/>
<text class="t" x="530" y="214" font-size="12" text-anchor="middle">shop fuu</text>
<rect class="box" x="450" y="234" width="160" height="28" rx="6"/>
<text class="t" x="530" y="252" font-size="12" text-anchor="middle">卸売</text>
<rect class="box" x="450" y="272" width="160" height="28" rx="6"/>
<text class="t" x="530" y="290" font-size="12" text-anchor="middle">イベント</text>

<!-- legend -->
<rect class="box" x="40" y="516" width="20" height="14" rx="3"/>
<text class="ts" x="66" y="527" font-size="11">現行</text>
<rect class="box plan" x="120" y="516" width="20" height="14" rx="3"/>
<text class="ts" x="146" y="527" font-size="11">構想（計画中）</text>
</svg>
